<svg width="212" height="211" viewBox="0 0 212 211" fill="none" xmlns="http://www.w3.org/2000/svg">
<path d="M211.68 105.5C211.68 127.779 204.627 149.487 191.531 167.511C178.436 185.536 159.97 198.952 138.781 205.836C117.592 212.721 94.7679 212.721 73.5789 205.836C52.3899 198.952 33.9244 185.536 20.8289 167.511L54.9694 142.707C62.8267 153.521 73.906 161.571 86.6194 165.702C99.3328 169.833 113.028 169.833 125.741 165.702C138.454 161.571 149.534 153.521 157.391 142.707C165.248 131.892 169.48 118.868 169.48 105.5H211.68Z" fill="#C2ECC1"/>
<path d="M73.1686 5.29778C89.0355 0.0704431 105.917 -1.31415 122.423 1.25795C138.93 3.83005 154.59 10.2853 168.114 20.0924C181.638 29.8996 192.64 42.7782 200.214 57.6683C207.788 72.5584 211.718 89.0344 211.68 105.74L169.48 105.644C169.503 95.6206 167.145 85.735 162.601 76.801C158.056 67.8669 151.455 60.1397 143.34 54.2555C135.226 48.3712 125.83 44.498 115.926 42.9548C106.022 41.4115 95.8933 42.2423 86.3732 45.3787L73.1686 5.29778Z" fill="#C5C7F6"/>
<path d="M21.0919 167.872C11.249 154.444 4.72376 138.877 2.04977 122.444C-0.624216 106.011 0.62894 89.179 5.70678 73.3232C10.7846 57.4674 19.543 43.0385 31.2657 31.2163C42.9885 19.394 57.3428 10.5139 73.1551 5.30223L86.3651 45.3813C76.8778 48.5084 68.2652 53.8364 61.2315 60.9298C54.1978 68.0231 48.9428 76.6805 45.8961 86.1939C42.8494 95.7074 42.0975 105.807 43.7019 115.667C45.3063 125.526 49.2214 134.866 55.1272 142.923L21.0919 167.872Z" fill="#1F1F1F"/>
</svg>
