<svg width="18" height="18" viewBox="0 0 18 18" fill="none" xmlns="http://www.w3.org/2000/svg">
<path d="M7.5 16.5H10.5C14.25 16.5 15.75 15 15.75 11.25V6.75C15.75 3 14.25 1.5 10.5 1.5H7.5C3.75 1.5 2.25 3 2.25 6.75V11.25C2.25 15 3.75 16.5 7.5 16.5Z" stroke="#131313" stroke-width="1.5" stroke-linecap="round" stroke-linejoin="round"/>
<path d="M12.375 5.685V6.435C12.375 7.05 11.8725 7.56 11.25 7.56H6.75C6.135 7.56 5.625 7.0575 5.625 6.435V5.685C5.625 5.07 6.1275 4.56 6.75 4.56H11.25C11.8725 4.56 12.375 5.0625 12.375 5.685Z" stroke="#131313" stroke-width="1.5" stroke-linecap="round" stroke-linejoin="round"/>
<path d="M6.10209 10.5H6.11075" stroke="#131313" stroke-width="2" stroke-linecap="round" stroke-linejoin="round"/>
<path d="M8.99644 10.5H9.0051" stroke="#131313" stroke-width="2" stroke-linecap="round" stroke-linejoin="round"/>
<path d="M11.8907 10.5H11.8994" stroke="#131313" stroke-width="2" stroke-linecap="round" stroke-linejoin="round"/>
<path d="M6.10209 13.125H6.11075" stroke="#131313" stroke-width="2" stroke-linecap="round" stroke-linejoin="round"/>
<path d="M8.99644 13.125H9.0051" stroke="#131313" stroke-width="2" stroke-linecap="round" stroke-linejoin="round"/>
<path d="M11.8907 13.125H11.8994" stroke="#131313" stroke-width="2" stroke-linecap="round" stroke-linejoin="round"/>
</svg>
